<svg xmlns="http://www.w3.org/2000/svg" shape-rendering="geometricPrecision" text-rendering="geometricPrecision" image-rendering="optimizeQuality" fill-rule="evenodd" clip-rule="evenodd" viewBox="0 0 376 511.468"><path d="M360.434 0h.001C368.996 0 376 7.018 376 15.565v214.597c0 8.547-7.018 15.565-15.565 15.565h-.001c-8.547 0-15.565-7.004-15.565-15.565V15.565C344.869 7.004 351.873 0 360.434 0zM17.257 208.792h10.599c1.053-21.09 18.556-38.034 39.863-38.188v-24.802l-11.912.01c-7.737 0-14.075-6.333-14.075-14.075v-17.541c0-7.741 6.334-14.074 14.075-14.074 3.957 0 7.93-.012 11.912-.037v-12.75a8.278 8.278 0 018.278-8.278h51.961a8.278 8.278 0 018.278 8.278v10.19c73.403-5.806 145.345-23.971 199.105-78.706V225.57c-58.998-61.317-125.985-75.572-199.105-78.831v23.865c21.307.154 38.809 17.1 39.863 38.188h10.599c9.509 0 17.257 7.749 17.257 17.257 0 9.488-7.786 17.258-17.257 17.258h-.498v233.645h.498c9.488 0 17.257 7.787 17.257 17.258 0 9.486-7.786 17.258-17.257 17.258H17.257C7.762 511.468 0 503.692 0 494.21c0-9.509 7.748-17.258 17.257-17.258h.498V243.307h-.498C7.761 243.307 0 235.533 0 226.049c0-9.508 7.748-17.257 17.257-17.257zm55.559 130.942a5.852 5.852 0 010-11.703h58.323a5.852 5.852 0 110 11.703H72.816zm0-26.868a5.852 5.852 0 010-11.703h58.323a5.852 5.852 0 110 11.703H72.816zm0-26.868a5.852 5.852 0 010-11.703h58.323a5.852 5.852 0 110 11.703H72.816zM17.257 485.23h169.441c4.938 0 8.98 4.042 8.98 8.98 0 4.939-4.043 8.98-8.98 8.98H17.257c-4.936 0-8.979-4.041-8.979-8.98 0-4.938 4.04-8.98 8.979-8.98zm0-268.16h169.441c4.938 0 8.98 4.041 8.98 8.979 0 4.939-4.043 8.98-8.98 8.98H17.257c-4.936 0-8.979-4.041-8.979-8.98 0-4.938 4.04-8.979 8.979-8.979z"/></svg>