<!DOCTYPE svg PUBLIC "-//W3C//DTD SVG 1.1//EN" "http://www.w3.org/Graphics/SVG/1.1/DTD/svg11.dtd">
<!-- Uploaded to: SVG Repo, www.svgrepo.com, Transformed by: SVG Repo Mixer Tools -->
<svg fill="#000000" height="800px" width="800px" version="1.1" id="Layer_1" xmlns="http://www.w3.org/2000/svg" xmlns:xlink="http://www.w3.org/1999/xlink" viewBox="0 0 472.615 472.615" xml:space="preserve">
<g id="SVGRepo_bgCarrier" stroke-width="0"/>
<g id="SVGRepo_tracerCarrier" stroke-linecap="round" stroke-linejoin="round"/>
<g id="SVGRepo_iconCarrier"> <g> <g> <path d="M0,9.861v78.74h472.615V9.861H0z M285.538,59.062H49.231V39.37h236.308V59.062z M354.462,59.062h-19.692V39.37h19.692 V59.062z M393.846,59.062h-19.692V39.37h19.692V59.062z M433.231,59.062h-19.692V39.37h19.692V59.062z"/> </g> </g> <g> <g> <polygon points="213.058,275.678 177.548,246.139 98.462,246.139 98.462,415.417 137.577,305.216 344.615,305.216 344.615,275.678 "/> </g> </g> <g> <g> <polygon points="0,108.293 0,374.169 78.769,374.169 78.769,226.447 184.664,226.447 220.173,255.985 364.308,255.985 364.308,305.216 407.663,305.216 384.511,374.169 472.615,374.169 472.615,108.293 "/> </g> </g> <g> <g> <path d="M151.481,324.908l-48.923,137.846H333.99l46.289-137.846H151.481z M236.308,443.062h-19.692V423.37h19.692V443.062z M275.692,443.062H256V423.37h19.692V443.062z M315.077,443.062h-19.692V423.37h19.692V443.062z"/> </g> </g> </g>
</svg>