<?xml version="1.0" encoding="utf-8"?><!-- Uploaded to: SVG Repo, www.svgrepo.com, Generator: SVG Repo Mixer Tools -->
<svg fill="#000000" width="800px" height="800px" viewBox="0 0 24 24" id="forward" data-name="Flat Color" xmlns="http://www.w3.org/2000/svg" class="icon flat-color"><path id="primary" d="M21,3a1,1,0,0,0-1,1v6.13l-7.45-5a1,1,0,0,0-1,0A1,1,0,0,0,11,6v4.13l-7.45-5a1,1,0,0,0-1,0A1,1,0,0,0,2,6V18a1,1,0,0,0,.53.88,1,1,0,0,0,1-.05l7.45-5V18a1,1,0,0,0,.53.88,1,1,0,0,0,1-.05l7.45-5V20a1,1,0,0,0,2,0V4A1,1,0,0,0,21,3Z" style="fill: rgb(0, 0, 0);"></path></svg>