<svg xmlns="http://www.w3.org/2000/svg" shape-rendering="geometricPrecision" text-rendering="geometricPrecision" image-rendering="optimizeQuality" fill-rule="evenodd" clip-rule="evenodd" viewBox="0 0 511.825 512"><path d="M169.857 282.46l113.208-113.208 1.302-1.279c7.184-6.504 14.611-15.039 19.88-23.723 4.284-7.06 7.109-14.159 7.109-20.192 0-14.896-2.87-28.161.109-43.298l.039-.257c8.078-40.302 38.979-70.623 79.45-78.449 17.583-3.4 36.044-2.422 54.44 1.778 5.593 1.276 8.496 2.609 8.954 5.726.39 2.633-1.61 5.367-5.786 9.619l-.167.183-51.336 51.323c-4.673 4.663-7.065 7.05-7.851 9.585-2.342 7.534 3.084 21.713 6.133 28.536.87 1.947 1.7 3.802 2.375 5.48 1.677.676 3.532 1.505 5.481 2.376 6.826 3.049 20.998 8.473 28.536 6.133 2.536-.788 4.922-3.179 9.585-7.851 6.346-6.352 49.269-50.351 51.346-51.348 4.344-4.282 7.113-6.336 9.779-5.943 3.116.461 4.45 3.362 5.726 8.956 10.738 47.047-1.592 95.949-44.84 121.73-20.642 12.306-37.808 14.645-61.123 12.972-4.591-.328-9.265-.665-14.264-.665-6.033 0-13.133 2.826-20.192 7.109-8.332 5.056-16.613 12.017-22.918 19.003l-.896.992L228.38 343.304c-.252.252-.502.488-.747.723-7.185 6.506-14.612 15.039-19.881 23.724-4.283 7.06-7.109 14.159-7.109 20.192 0 31.883 5.39 45.701-12.307 75.387-14.587 24.471-39.385 41.219-67.29 46.615-17.583 3.401-36.044 2.423-54.44-1.776-5.593-1.276-8.495-2.61-8.956-5.726-.388-2.632 1.612-5.367 5.788-9.619l.167-.182c17.109-17.109 34.216-34.233 51.336-51.322 4.671-4.663 7.064-7.05 7.851-9.587 2.336-7.521-3.091-21.728-6.133-28.535-.871-1.949-1.7-3.804-2.375-5.482-1.677-.675-3.53-1.503-5.475-2.373-6.834-3.054-21.003-8.476-28.542-6.135-2.534.787-4.922 3.177-9.584 7.849-6.33 6.343-49.283 50.358-51.347 51.349-4.344 4.283-7.113 6.337-9.779 5.943-3.116-.459-4.45-3.361-5.726-8.955-4.199-18.396-5.177-36.857-1.777-54.441 5.396-27.902 22.147-52.704 46.617-67.289 29.645-17.674 44.81-12.308 75.387-12.308 6.033 0 13.132-2.825 20.191-7.108 8.604-5.221 17.062-12.56 23.543-19.682l2.065-2.106zm163.138-85.04L202.098 328.317c-12.181 12.181-30.595-6.234-18.414-18.414l130.897-130.897c12.18-12.18 30.593 6.233 18.414 18.414z"/></svg>